<mxfile host="app.diagrams.net" agent="Mozilla/5.0 (Windows NT 10.0; Win64; x64) AppleWebKit/537.36 (KHTML, like Gecko) Chrome/135.0.0.0 Safari/537.36" version="26.2.13">
  <diagram name="第 1 页" id="2BHJ6eeiq_Yv8pMzbxQ_">
    <mxGraphModel dx="1232" dy="733" grid="1" gridSize="10" guides="1" tooltips="1" connect="1" arrows="1" fold="1" page="1" pageScale="1" pageWidth="827" pageHeight="1169" math="0" shadow="0">
      <root>
        <mxCell id="0" />
        <mxCell id="1" parent="0" />
        <mxCell id="-KYFpU4fzCwQJYlKM5J2-1" value="Administrator" style="shape=umlLifeline;perimeter=lifelinePerimeter;whiteSpace=wrap;container=1;dropTarget=0;collapsible=0;recursiveResize=0;outlineConnect=0;portConstraint=eastwest;newEdgeStyle={&quot;edgeStyle&quot;:&quot;elbowEdgeStyle&quot;,&quot;elbow&quot;:&quot;vertical&quot;,&quot;curved&quot;:0,&quot;rounded&quot;:0};size=65;" vertex="1" parent="1">
          <mxGeometry x="203" y="30" width="150" height="850" as="geometry" />
        </mxCell>
        <mxCell id="-KYFpU4fzCwQJYlKM5J2-2" value="System" style="shape=umlLifeline;perimeter=lifelinePerimeter;whiteSpace=wrap;container=1;dropTarget=0;collapsible=0;recursiveResize=0;outlineConnect=0;portConstraint=eastwest;newEdgeStyle={&quot;edgeStyle&quot;:&quot;elbowEdgeStyle&quot;,&quot;elbow&quot;:&quot;vertical&quot;,&quot;curved&quot;:0,&quot;rounded&quot;:0};size=65;" vertex="1" parent="1">
          <mxGeometry x="439" y="30" width="150" height="850" as="geometry" />
        </mxCell>
        <mxCell id="-KYFpU4fzCwQJYlKM5J2-3" value="" style="points=[];perimeter=orthogonalPerimeter;outlineConnect=0;targetShapes=umlLifeline;portConstraint=eastwest;newEdgeStyle={&quot;edgeStyle&quot;:&quot;elbowEdgeStyle&quot;,&quot;elbow&quot;:&quot;vertical&quot;,&quot;curved&quot;:0,&quot;rounded&quot;:0}" vertex="1" parent="-KYFpU4fzCwQJYlKM5J2-2">
          <mxGeometry x="70" y="106" width="10" height="676" as="geometry" />
        </mxCell>
        <mxCell id="-KYFpU4fzCwQJYlKM5J2-4" value="loop" style="shape=umlFrame;pointerEvents=0;dropTarget=0;strokeColor=#B3B3B3;height=20;width=40" vertex="1" parent="1">
          <mxGeometry x="203" y="157" width="422" height="240" as="geometry" />
        </mxCell>
        <mxCell id="-KYFpU4fzCwQJYlKM5J2-5" value="[统计每个充电桩]" style="text;strokeColor=none;fillColor=none;align=center;verticalAlign=middle;whiteSpace=wrap;" vertex="1" parent="-KYFpU4fzCwQJYlKM5J2-4">
          <mxGeometry x="83.98009950248756" width="338.0199004975124" height="20" as="geometry" />
        </mxCell>
        <mxCell id="-KYFpU4fzCwQJYlKM5J2-6" value="opt" style="shape=umlFrame;pointerEvents=0;dropTarget=0;strokeColor=#B3B3B3;height=20;width=30" vertex="1" parent="1">
          <mxGeometry x="140" y="603" width="469" height="158" as="geometry" />
        </mxCell>
        <mxCell id="-KYFpU4fzCwQJYlKM5J2-7" value="[导出Excel]" style="text;strokeColor=none;fillColor=none;align=center;verticalAlign=middle;whiteSpace=wrap;" vertex="1" parent="-KYFpU4fzCwQJYlKM5J2-6">
          <mxGeometry x="82.76470588235294" width="386.2352941176471" height="20" as="geometry" />
        </mxCell>
        <mxCell id="-KYFpU4fzCwQJYlKM5J2-8" value="alt" style="shape=umlFrame;pointerEvents=0;dropTarget=0;strokeColor=#B3B3B3;height=20;width=30" vertex="1" parent="1">
          <mxGeometry x="120" y="407" width="499" height="364" as="geometry" />
        </mxCell>
        <mxCell id="-KYFpU4fzCwQJYlKM5J2-9" value="[数据异常]" style="text;strokeColor=none;fillColor=none;align=center;verticalAlign=middle;whiteSpace=wrap;" vertex="1" parent="-KYFpU4fzCwQJYlKM5J2-8">
          <mxGeometry x="42.52840909090909" width="456.47159090909093" height="20" as="geometry" />
        </mxCell>
        <mxCell id="-KYFpU4fzCwQJYlKM5J2-10" value="[正常生成]" style="shape=line;dashed=1;whiteSpace=wrap;verticalAlign=top;labelPosition=center;verticalLabelPosition=middle;align=center;strokeColor=#B3B3B3;" vertex="1" parent="-KYFpU4fzCwQJYlKM5J2-8">
          <mxGeometry y="103" width="499" height="3" as="geometry" />
        </mxCell>
        <mxCell id="-KYFpU4fzCwQJYlKM5J2-11" value="设置时间范围(日/周/月)" style="verticalAlign=bottom;edgeStyle=elbowEdgeStyle;elbow=vertical;curved=0;rounded=0;endArrow=block;" edge="1" parent="1" source="-KYFpU4fzCwQJYlKM5J2-1" target="-KYFpU4fzCwQJYlKM5J2-3">
          <mxGeometry relative="1" as="geometry">
            <Array as="points">
              <mxPoint x="403" y="137" />
            </Array>
          </mxGeometry>
        </mxCell>
        <mxCell id="-KYFpU4fzCwQJYlKM5J2-12" value="计算充电次数/时长/电量" style="curved=1;endArrow=block;rounded=0;" edge="1" parent="1" source="-KYFpU4fzCwQJYlKM5J2-3" target="-KYFpU4fzCwQJYlKM5J2-3">
          <mxGeometry relative="1" as="geometry">
            <Array as="points">
              <mxPoint x="574" y="235" />
              <mxPoint x="574" y="265" />
            </Array>
          </mxGeometry>
        </mxCell>
        <mxCell id="-KYFpU4fzCwQJYlKM5J2-13" value="汇总收入(充电费+服务费)" style="curved=1;endArrow=block;rounded=0;" edge="1" parent="1" source="-KYFpU4fzCwQJYlKM5J2-3" target="-KYFpU4fzCwQJYlKM5J2-3">
          <mxGeometry relative="1" as="geometry">
            <Array as="points">
              <mxPoint x="574" y="317" />
              <mxPoint x="574" y="347" />
            </Array>
          </mxGeometry>
        </mxCell>
        <mxCell id="-KYFpU4fzCwQJYlKM5J2-14" value="错误提示" style="verticalAlign=bottom;edgeStyle=elbowEdgeStyle;elbow=vertical;curved=0;rounded=0;dashed=1;dashPattern=2 3;endArrow=block;" edge="1" parent="1" source="-KYFpU4fzCwQJYlKM5J2-3" target="-KYFpU4fzCwQJYlKM5J2-1">
          <mxGeometry relative="1" as="geometry">
            <Array as="points">
              <mxPoint x="406" y="485" />
            </Array>
          </mxGeometry>
        </mxCell>
        <mxCell id="-KYFpU4fzCwQJYlKM5J2-15" value="展示统计报表" style="verticalAlign=bottom;edgeStyle=elbowEdgeStyle;elbow=vertical;curved=0;rounded=0;dashed=1;dashPattern=2 3;endArrow=block;" edge="1" parent="1" source="-KYFpU4fzCwQJYlKM5J2-3" target="-KYFpU4fzCwQJYlKM5J2-1">
          <mxGeometry relative="1" as="geometry">
            <Array as="points">
              <mxPoint x="406" y="583" />
            </Array>
          </mxGeometry>
        </mxCell>
        <mxCell id="-KYFpU4fzCwQJYlKM5J2-16" value="生成.xlsx文件" style="curved=1;endArrow=block;rounded=0;" edge="1" parent="1" source="-KYFpU4fzCwQJYlKM5J2-3" target="-KYFpU4fzCwQJYlKM5J2-3">
          <mxGeometry relative="1" as="geometry">
            <Array as="points">
              <mxPoint x="574" y="681" />
              <mxPoint x="574" y="711" />
            </Array>
          </mxGeometry>
        </mxCell>
        <mxCell id="-KYFpU4fzCwQJYlKM5J2-17" value="报表生成确认" style="verticalAlign=bottom;edgeStyle=elbowEdgeStyle;elbow=vertical;curved=0;rounded=0;dashed=1;dashPattern=2 3;endArrow=block;" edge="1" parent="1" source="-KYFpU4fzCwQJYlKM5J2-3" target="-KYFpU4fzCwQJYlKM5J2-1">
          <mxGeometry relative="1" as="geometry">
            <Array as="points">
              <mxPoint x="406" y="813" />
            </Array>
          </mxGeometry>
        </mxCell>
      </root>
    </mxGraphModel>
  </diagram>
</mxfile>
